<svg id="Layer_1" data-name="Layer 1" xmlns="http://www.w3.org/2000/svg" viewBox="0 0 496 187.42"><defs><style>.cls-1{fill:#000;}.cls-2{fill:#ffb63d;}</style></defs><title>logo_white</title><path class="cls-1" d="M218.4,98q3.2,0,3.2,3.36t-3.2,9.27a106.73,106.73,0,0,0-4.74,9.61Q211,126.58,211,130.35t1.11,5q2.09,2.2,5.71.21a64,64,0,0,0,10.1-7.69,66.47,66.47,0,0,0,10.38-11.19,1,1,0,0,1,1.32-.34c.51.23.77.46.77.69a1.38,1.38,0,0,1-.28.75,53.58,53.58,0,0,1-7.52,9.47,68.67,68.67,0,0,1-10.45,9.27,17.26,17.26,0,0,1-9.89,3.5q-4.74-.14-6.69-2.13a6.86,6.86,0,0,1-1.95-5,29.9,29.9,0,0,1,.56-5.83,35.38,35.38,0,0,1,2.09-6.52,92.11,92.11,0,0,1,4.39-9.2q1.88-3.29,1.88-4.32c0-.69-.37-1-1.11-1q-2.23,0-8.5,5.35-4.32,4-12.74,15t-9.54,11.74q-5,2.47-6.27,2.47t-1.25-.41a3.68,3.68,0,0,1,.28-1.17q.28-.76,2.72-7.48t5.29-14.76q2.85-8,3.48-9.68a16.21,16.21,0,0,0,.84-2.81,13.88,13.88,0,0,1,.49-2,6.89,6.89,0,0,1,1-1.85,2.59,2.59,0,0,1,2-1.1,14.72,14.72,0,0,1,3.2.27q1.95.34,2,1.72a13.82,13.82,0,0,1-1.53,4.19q-1.53,3.23-8.78,22.17,5-6,12.68-13.93a132.55,132.55,0,0,1,13-12Q215.05,98,218.4,98Z"/><path class="cls-1" d="M268.68,97.06q7.52,0,7.52,7.14a8.72,8.72,0,0,1-2.09,6q-3.48,5.08-11.28,8.85t-13.23,4.19q-2,.14-2.09-1.1-.14-.55.35-.69a3.07,3.07,0,0,1,.77-.14q3.2-.27,8.22-3,9.33-4.94,13.65-10.16a8.11,8.11,0,0,0,1.81-4.74,2,2,0,0,0-2.23-2.27,12,12,0,0,0-4.87,1.51q-6.55,3-13.79,10.5t-9.47,14.62a14.18,14.18,0,0,0-.7,4.32,5.85,5.85,0,0,0,1.81,4q1.81,1.92,5.57,1.92a26.17,26.17,0,0,0,9.61-2.2q15.74-6.31,24.24-19.08.84-1.1,1.53-.41c.37.18.56.41.56.69a1.68,1.68,0,0,1-.42,1,49.18,49.18,0,0,1-10.59,12.22q-12.4,10.43-24.1,10.43-10,0-14.07-5.9a10,10,0,0,1-1.53-5.63,21.66,21.66,0,0,1,1.81-7.82q3.48-7.83,14.9-16.06T268.68,97.06Z"/><path class="cls-1" d="M313.11,97.06q7.52,0,7.52,7.14a8.72,8.72,0,0,1-2.09,6q-3.48,5.08-11.28,8.85T294,123.28q-2,.14-2.09-1.1-.14-.55.35-.69a3.07,3.07,0,0,1,.77-.14q3.2-.27,8.22-3,9.33-4.94,13.65-10.16a8.11,8.11,0,0,0,1.81-4.74,2,2,0,0,0-2.23-2.27,12,12,0,0,0-4.87,1.51q-6.55,3-13.79,10.5t-9.47,14.62a14.18,14.18,0,0,0-.7,4.32,5.85,5.85,0,0,0,1.81,4q1.81,1.92,5.57,1.92a26.17,26.17,0,0,0,9.61-2.2q15.74-6.31,24.24-19.08.84-1.1,1.53-.41c.37.18.56.41.56.69a1.68,1.68,0,0,1-.42,1A49.18,49.18,0,0,1,318,130.28q-12.4,10.43-24.1,10.43-10,0-14.07-5.9a10,10,0,0,1-1.53-5.63,21.66,21.66,0,0,1,1.81-7.82q3.48-7.83,14.9-16.06T313.11,97.06Z"/><path class="cls-1" d="M332.19,119.44a32.31,32.31,0,0,0-1.81,6.25q-.14,1.58-.14,4.26a8.9,8.9,0,0,0,1.39,4.87q2.37,3.71,7.94.55a55.77,55.77,0,0,0,10.59-8A72.73,72.73,0,0,0,360,116.69a.94.94,0,0,1,.84-.41q1.26,0,.7,1.78a50.5,50.5,0,0,1-7.73,9.47,85.08,85.08,0,0,1-10.24,9.13,15.51,15.51,0,0,1-9.19,3.36q-10.59,0-10.59-10.16V129q.55-9.61,9.89-29T350.57,70.7l4.32-5.35A49.6,49.6,0,0,1,359.35,61q5.57-5.22,11.49-5.22t8,3.57a7.41,7.41,0,0,1,.7,3.57q0,2.34-2.09,6.59Q363.11,94,332.19,119.44ZM373.7,67a10.81,10.81,0,0,0,1.67-4.67q0-2.88-2.37-2.88-2,0-4.87,2.2Q357,70.15,346.54,88.55a182.08,182.08,0,0,0-12.26,25.4q9.61-6.45,21.52-21T373.7,67Z"/><path class="cls-1" d="M365.06,138.52a10.72,10.72,0,0,1-4.81-1.3,12.49,12.49,0,0,1-4.39-3.71,8.38,8.38,0,0,1-1.81-5.15,11.37,11.37,0,0,1,1.25-5.22,36,36,0,0,1,9-11.19,80.65,80.65,0,0,1,12.88-9.27,44.93,44.93,0,0,1,10.59-4.8,31.73,31.73,0,0,1,7.59-1,10.77,10.77,0,0,1,6.34,1.85q2.65,1.85,2.65,3.91a1.42,1.42,0,0,1-.14.82c-.09.09-.33,0-.7-.14q-1.67-2.61-6.9-2.61t-11.84,3.36a61.58,61.58,0,0,0-12.47,8.44,53.81,53.81,0,0,0-8.57,10.23q-3.69,5.7-3.69,8.31,0,5.08,2.92,5.08t8.91-4.67a174.62,174.62,0,0,0,13.51-12.08q12.81-13.59,13.79-13.59a11.16,11.16,0,0,1,4,1q2.37,1,1.53,2.33Q397.65,119,396.4,129a29.19,29.19,0,0,0-.14,3.16,4.53,4.53,0,0,0,1.11,3.16q2.09,2.2,5.71.28t10.1-7.69a68.52,68.52,0,0,0,10.38-11.26,1,1,0,0,1,1.25-.34c.46.23.7.44.7.62q0,2.06-6.62,9a81.38,81.38,0,0,1-10.1,9.4q-6.55,4.8-12.12,4.81-5.3,0-7.1-5.22a15,15,0,0,1-.42-3.71,36.26,36.26,0,0,1,2.65-13,53.57,53.57,0,0,0-5.15,5.49,82.18,82.18,0,0,1-10.66,10Q369.93,138.52,365.06,138.52Z"/><path class="cls-1" d="M447.79,59.85q0,2.75-5.85,10-8.5,9.61-9.89,9.61c-.37,0-.56-.27-.56-.82s1.34-2.31,4-5.29a25.15,25.15,0,0,0,5.57-9.4,4.47,4.47,0,0,0,.07-4,5.78,5.78,0,0,1-.77-3.16,3.58,3.58,0,0,1,3.13-1.37,3.63,3.63,0,0,1,3.2,1.51A5.12,5.12,0,0,1,447.79,59.85Z"/><path class="cls-1" d="M433.62,138.38q-1.81,2.06-.77,3.3a3.06,3.06,0,0,0,2.37,1.24,9.55,9.55,0,0,0,2.72-.41,29.55,29.55,0,0,0,11.63-7.07q5.64-5.28,5.64-10.78,0-3-6.83-6.59-3.21-1.65-3.62-1.92Q441,113.67,440,111.2q-2,3.29-6.27,9.47-1,1.1-1.81.48t-.14-1.72q5.71-7.69,7.52-12.91,1-7.55,11.14-13.59t18.53-6q5.29,0,7.45,1.85t2.16,3.64a10.3,10.3,0,0,1-1,4.12,10.81,10.81,0,0,1-4.25,4.39.89.89,0,0,1-1.39-.28q-.28-.82,1.18-2.26A7,7,0,0,0,475,94.45q.42-2.47-2.23-3h-.84q-5.43,0-13.58,4a33.65,33.65,0,0,0-12.74,10.3,7.69,7.69,0,0,0-1.81,4.74q0,2.4,3.34,4.32,1.39.82,4.74,2.61T456.6,120a21.7,21.7,0,0,1,3.34,2.61,5.57,5.57,0,0,1,2.09,3.29q.7,4.12-3.9,9.06-6.55,7.14-19.5,10a25.9,25.9,0,0,1-5.92.69,4.18,4.18,0,0,1-4.11-2.2,2.84,2.84,0,0,1-.42-1.72q0-1.17,2.23-3.78a21.44,21.44,0,0,1,6.69-4,.64.64,0,0,1,.7.14.62.62,0,0,1,.14.69c-.09.27-.58.6-1.46,1A7.61,7.61,0,0,0,433.62,138.38Z"/><path class="cls-1" d="M57.7,114.19s20.05-55.27,93.91-5.87c-6.36-48.42-8.8-60.71-5.87-65.08-17.61,25-54.54,99.22-72.88,112.53C49.11,173,18.08,152.34,23,122.5c0,0-1,36.05,33.75,35.22C81.17,157.13,106.61,94,115.9,74S157,.71,179,16.36c-1,3.42-4.4,9.29-4.4,9.29s-21.52-7-14.67,48.33c4.89,25,13.7,67.59,13.7,67.59S97.81,59.89,57.7,114.19Z"/><path class="cls-1" d="M193.3,159.52l-.94.15-1.3-4.9a9.57,9.57,0,0,0-2.92-.43,6.8,6.8,0,0,0-5.83,2.82,12.23,12.23,0,0,0-2.07,7.4,11.71,11.71,0,0,0,2.43,7.78,8.33,8.33,0,0,0,6.75,2.9,14.77,14.77,0,0,0,5.07-1l.22,1a13.4,13.4,0,0,1-7.71,2.32,12.35,12.35,0,0,1-9-3.36,13.2,13.2,0,0,1,.33-18.12,14.12,14.12,0,0,1,9.85-3.41,28.45,28.45,0,0,1,6.14.7l.1.18Z"/><path class="cls-1" d="M230.39,164.5a13.08,13.08,0,0,1-3.48,9.5q-3.48,3.59-9.69,3.59-5.94,0-9.18-3.32t-3.24-9q0-5.91,3.5-9.34t9.68-3.44q5.94,0,9.18,3.21T230.39,164.5Zm-19.86.22q0,5.46,1.84,8.35a6,6,0,0,0,5.41,2.9,5.73,5.73,0,0,0,5.2-2.63q1.68-2.63,1.68-8.26,0-5.29-1.77-8.13a6,6,0,0,0-5.5-2.84,5.68,5.68,0,0,0-5.23,2.64Q210.53,159.38,210.52,164.72Z"/><path class="cls-1" d="M249.83,157.93v13.5c0,1.25,0,2.49,0,3.72h6.67l2.34-4.85,1-.15-.43,6.74-.12.12q-4.21-.06-8.24-.05H246.9q-2.54,0-4.71.05l-.09-.86,2.12-.63a.57.57,0,0,0,.46-.53c0-.46,0-1,0-1.53s0-1.18,0-1.86V158c0-.57,0-1.09,0-1.55s0-.89,0-1.28a.55.55,0,0,0-.41-.56l-2.12-.67-.05-.87c1.47,0,3.16.07,5.08.07s3.7,0,5.15-.07l.09.87-2.11.63a.53.53,0,0,0-.44.52c0,.41,0,1,0,1.75S249.83,158,249.83,157.93Z"/><path class="cls-1" d="M278.37,157.93v13.5c0,1.25,0,2.49,0,3.72h6.67l2.34-4.85,1-.15-.43,6.74-.12.12q-4.21-.06-8.24-.05h-4.23q-2.54,0-4.71.05l-.09-.86,2.12-.63a.57.57,0,0,0,.46-.53c0-.46,0-1,0-1.53s0-1.18,0-1.86V158c0-.57,0-1.09,0-1.55s0-.89,0-1.28a.55.55,0,0,0-.41-.56l-2.12-.67-.05-.87c1.47,0,3.16.07,5.08.07s3.7,0,5.15-.07l.09.87-2.11.63a.53.53,0,0,0-.44.52c0,.41,0,1,0,1.75S278.37,158,278.37,157.93Z"/><path class="cls-1" d="M303.55,153.14h4.32q4.14,0,8.6-.07l.12.13-1.06,5.69-.92.14-1.09-4.15h-6.6v9.06h.92c1,0,2.05,0,3.19,0a.59.59,0,0,0,.58-.46l.61-2.34,1.13,0c0,1.65-.05,2.89-.05,3.7s0,2,.05,3.65l-1.13.09-.63-2.41a.57.57,0,0,0-.53-.48l-3.24,0h-.9v5.85c0,1.25,0,2.49,0,3.72h6.82l2.15-4.49,1-.15-.41,6.38-.12.12q-4.25-.06-8.28-.05h-4.52q-2.2,0-4.54.05l-.09-.86,2.29-.63a.57.57,0,0,0,.46-.53c0-.46,0-1,0-1.53s0-1.18,0-1.86V158c0-.57,0-1.09,0-1.55s0-.89,0-1.28a.55.55,0,0,0-.41-.56l-2.29-.67-.05-.87C300.6,153.11,302.12,153.14,303.55,153.14Z"/><path class="cls-1" d="M346.7,159.52l-.94.15-1.3-4.9a9.57,9.57,0,0,0-2.92-.43,6.8,6.8,0,0,0-5.83,2.82,12.23,12.23,0,0,0-2.07,7.4,11.71,11.71,0,0,0,2.43,7.78,8.33,8.33,0,0,0,6.75,2.9,14.77,14.77,0,0,0,5.07-1l.22,1a13.4,13.4,0,0,1-7.71,2.32,12.35,12.35,0,0,1-9-3.36,13.2,13.2,0,0,1,.33-18.12,14.12,14.12,0,0,1,9.85-3.41,28.45,28.45,0,0,1,6.14.7l.1.18Z"/><path class="cls-1" d="M368.63,177q-3,0-5.73.05l-.09-.86,2.73-.75a.57.57,0,0,0,.44-.55c0-.86,0-1.95,0-3.29V154.89h-4.91l-1.57,4.54-1,.15-.44-6.39.12-.13q4.2.06,8,.07h4.76q3.84,0,8.09-.07l.1.13-1.13,6.25-1,.15-1.11-4.71h-4.93v16.67c0,1.34,0,2.44,0,3.29a.57.57,0,0,0,.46.55l2.68.75.05.86Q371.52,177,368.63,177Z"/><path class="cls-1" d="M397.18,171.6c0,.68,0,1.3,0,1.86s0,1.06,0,1.5.2.49.58.6l2.1.6.05.86q-2.37-.06-5.25-.05t-5.32.05l-.09-.86,2.29-.63A.57.57,0,0,0,392,175c0-.46,0-1,0-1.53s0-1.18,0-1.86V158c0-.57,0-1.09,0-1.55s0-.89,0-1.28a.55.55,0,0,0-.41-.56l-2.29-.67-.05-.87c1.58,0,3.33.07,5.25.07s3.75,0,5.32-.07l.09.87-2.28.63a.53.53,0,0,0-.44.52c0,.41,0,.85,0,1.32s0,1,0,1.52Z"/><path class="cls-1" d="M437.11,164.5a13.08,13.08,0,0,1-3.48,9.5q-3.48,3.59-9.69,3.59-5.94,0-9.18-3.32t-3.24-9q0-5.91,3.5-9.34t9.68-3.44q5.94,0,9.18,3.21T437.11,164.5Zm-19.86.22q0,5.46,1.84,8.35a6,6,0,0,0,5.41,2.9,5.73,5.73,0,0,0,5.2-2.63q1.68-2.63,1.68-8.26,0-5.29-1.77-8.13a6,6,0,0,0-5.5-2.84,5.68,5.68,0,0,0-5.23,2.64Q417.25,159.38,417.25,164.72Z"/><path class="cls-1" d="M453.28,174.93a.56.56,0,0,0,.43.6l2.18.6.05.89q-2.31-.06-3.79-.05c-1,0-2.26,0-3.84.05l-.09-.86,2.29-.63A.56.56,0,0,0,451,175q0-1.39,0-3.4V158c0-1.14,0-2.08,0-2.83a.55.55,0,0,0-.41-.56l-2.28-.67-.05-.87c1.59,0,2.82.07,3.67.07,1.12,0,2.17,0,3.17-.07l11.35,14.21c.46.57.92,1.17,1.4,1.81,0-.78,0-1.54,0-2.27v-8.89c0-1.11,0-2.05,0-2.85a.54.54,0,0,0-.44-.52l-2.19-.6-.05-.9c1.57,0,2.85.07,3.82.07s2.27,0,3.8-.07l.09.87-2.32.67a.55.55,0,0,0-.41.56c0,.75-.05,1.69-.05,2.83v19l-2,.19L454.6,160.3q-.6-.77-1.38-1.82c0,.84,0,1.62,0,2.32v10.8Q453.25,173.61,453.28,174.93Z"/><path class="cls-2" d="M16.7,108s2.76-13.8-5.51-13.11S16.7,108,16.7,108Z"/><path class="cls-2" d="M26.7,114.22s7.58-.67,11.72-6.19c4.14,0,2.76,5.16,0,6.19S26.7,114.22,26.7,114.22Z"/><path class="cls-2" d="M32.32,90.95s5.55,1.65,7.4,6.17a7.77,7.77,0,0,1-1,7.81s1.85-2.06-2.36-7S35.2,91.15,32.32,90.95Z"/><path class="cls-2" d="M22.45,90.95s-4.33,3.7-4.33,7c0,0-1.76-3.7-1-5.76S21,90.53,22.45,90.95Z"/><path class="cls-2" d="M22.45,113.57S12.39,111,10.72,104.93c-2.26,0,2.47,8.4,4.32,9.75S20.82,115.83,22.45,113.57Z"/><path class="cls-2" d="M23.47,115.53s7,2.77,10.39,1.33-1.75,4.32-6.28,3.29S20.26,114.5,23.47,115.53Z"/><path class="cls-2" d="M19.7,103.7s2.41,4.14,7,4.33,6.17-.84,8.26-3.1-.74,6.9-8.26,7.2S19.7,103.7,19.7,103.7Z"/><path class="cls-2" d="M25.94,97.94s3.3,7,7.92,3.52c0,0-2.5,4.7-7.16,3.47S25.94,97.94,25.94,97.94Z"/><path class="cls-2" d="M22.09,97.94s2.15-4.85,5.57-3a12.22,12.22,0,0,1,4.66,3.87s3.5-4.94-3.18-6.38S22.09,97.94,22.09,97.94Z"/></svg>
