<svg xmlns="http://www.w3.org/2000/svg" viewBox="8.53 90.58 32.5 29.7">
  <defs>
    <style>.cls-1{fill:#000;}.cls-2{fill:#f53333;}</style>
  </defs>
  <title>logo_white</title>
  <path class="cls-2" d="M16.7,108s2.76-13.8-5.51-13.11S16.7,108,16.7,108Z"/>
  <path class="cls-2" d="M26.7,114.22s7.58-.67,11.72-6.19c4.14,0,2.76,5.16,0,6.19S26.7,114.22,26.7,114.22Z"/>
  <path class="cls-2" d="M32.32,90.95s5.55,1.65,7.4,6.17a7.77,7.77,0,0,1-1,7.81s1.85-2.06-2.36-7S35.2,91.15,32.32,90.95Z"/>
  <path class="cls-2" d="M22.45,90.95s-4.33,3.7-4.33,7c0,0-1.76-3.7-1-5.76S21,90.53,22.45,90.95Z"/>
  <path class="cls-2" d="M22.45,113.57S12.39,111,10.72,104.93c-2.26,0,2.47,8.4,4.32,9.75S20.82,115.83,22.45,113.57Z"/>
  <path class="cls-2" d="M23.47,115.53s7,2.77,10.39,1.33-1.75,4.32-6.28,3.29S20.26,114.5,23.47,115.53Z"/>
  <path class="cls-2" d="M19.7,103.7s2.41,4.14,7,4.33,6.17-.84,8.26-3.1-.74,6.9-8.26,7.2S19.7,103.7,19.7,103.7Z"/>
  <path class="cls-2" d="M25.94,97.94s3.3,7,7.92,3.52c0,0-2.5,4.7-7.16,3.47S25.94,97.94,25.94,97.94Z"/>
  <path class="cls-2" d="M22.09,97.94s2.15-4.85,5.57-3a12.22,12.22,0,0,1,4.66,3.87s3.5-4.94-3.18-6.38S22.09,97.94,22.09,97.94Z"/>
</svg>
