<svg xmlns="http://www.w3.org/2000/svg" viewBox="0 0 496 187.42">
  <defs>
    <style>.cls-1{fill:#fff;}.cls-2{fill:#fff;}</style>
  </defs>
  <title>logo_white</title>
  <path class="cls-1" d="M218.4,98q3.2,0,3.2,3.36t-3.2,9.27a106.73,106.73,0,0,0-4.74,9.61Q211,126.58,211,130.35t1.11,5q2.09,2.2,5.71.21a64,64,0,0,0,10.1-7.69,66.47,66.47,0,0,0,10.38-11.19,1,1,0,0,1,1.32-.34c.51.23.77.46.77.69a1.38,1.38,0,0,1-.28.75,53.58,53.58,0,0,1-7.52,9.47,68.67,68.67,0,0,1-10.45,9.27,17.26,17.26,0,0,1-9.89,3.5q-4.74-.14-6.69-2.13a6.86,6.86,0,0,1-1.95-5,29.9,29.9,0,0,1,.56-5.83,35.38,35.38,0,0,1,2.09-6.52,92.11,92.11,0,0,1,4.39-9.2q1.88-3.29,1.88-4.32c0-.69-.37-1-1.11-1q-2.23,0-8.5,5.35-4.32,4-12.74,15t-9.54,11.74q-5,2.47-6.27,2.47t-1.25-.41a3.68,3.68,0,0,1,.28-1.17q.28-.76,2.72-7.48t5.29-14.76q2.85-8,3.48-9.68a16.21,16.21,0,0,0,.84-2.81,13.88,13.88,0,0,1,.49-2,6.89,6.89,0,0,1,1-1.85,2.59,2.59,0,0,1,2-1.1,14.72,14.72,0,0,1,3.2.27q1.95.34,2,1.72a13.82,13.82,0,0,1-1.53,4.19q-1.53,3.23-8.78,22.17,5-6,12.68-13.93a132.55,132.55,0,0,1,13-12Q215.05,98,218.4,98Z"/>
  <path class="cls-1" d="M268.68,97.06q7.52,0,7.52,7.14a8.72,8.72,0,0,1-2.09,6q-3.48,5.08-11.28,8.85t-13.23,4.19q-2,.14-2.09-1.1-.14-.55.35-.69a3.07,3.07,0,0,1,.77-.14q3.2-.27,8.22-3,9.33-4.94,13.65-10.16a8.11,8.11,0,0,0,1.81-4.74,2,2,0,0,0-2.23-2.27,12,12,0,0,0-4.87,1.51q-6.55,3-13.79,10.5t-9.47,14.62a14.18,14.18,0,0,0-.7,4.32,5.85,5.85,0,0,0,1.81,4q1.81,1.92,5.57,1.92a26.17,26.17,0,0,0,9.61-2.2q15.74-6.31,24.24-19.08.84-1.1,1.53-.41c.37.18.56.41.56.69a1.68,1.68,0,0,1-.42,1,49.18,49.18,0,0,1-10.59,12.22q-12.4,10.43-24.1,10.43-10,0-14.07-5.9a10,10,0,0,1-1.53-5.63,21.66,21.66,0,0,1,1.81-7.82q3.48-7.83,14.9-16.06T268.68,97.06Z"/>
  <path class="cls-1" d="M313.11,97.06q7.52,0,7.52,7.14a8.72,8.72,0,0,1-2.09,6q-3.48,5.08-11.28,8.85T294,123.28q-2,.14-2.09-1.1-.14-.55.35-.69a3.07,3.07,0,0,1,.77-.14q3.2-.27,8.22-3,9.33-4.94,13.65-10.16a8.11,8.11,0,0,0,1.81-4.74,2,2,0,0,0-2.23-2.27,12,12,0,0,0-4.87,1.51q-6.55,3-13.79,10.5t-9.47,14.62a14.18,14.18,0,0,0-.7,4.32,5.85,5.85,0,0,0,1.81,4q1.81,1.92,5.57,1.92a26.17,26.17,0,0,0,9.61-2.2q15.74-6.31,24.24-19.08.84-1.1,1.53-.41c.37.18.56.41.56.69a1.68,1.68,0,0,1-.42,1A49.18,49.18,0,0,1,318,130.28q-12.4,10.43-24.1,10.43-10,0-14.07-5.9a10,10,0,0,1-1.53-5.63,21.66,21.66,0,0,1,1.81-7.82q3.48-7.83,14.9-16.06T313.11,97.06Z"/>
  <path class="cls-1" d="M332.19,119.44a32.31,32.31,0,0,0-1.81,6.25q-.14,1.58-.14,4.26a8.9,8.9,0,0,0,1.39,4.87q2.37,3.71,7.94.55a55.77,55.77,0,0,0,10.59-8A72.73,72.73,0,0,0,360,116.69a.94.94,0,0,1,.84-.41q1.26,0,.7,1.78a50.5,50.5,0,0,1-7.73,9.47,85.08,85.08,0,0,1-10.24,9.13,15.51,15.51,0,0,1-9.19,3.36q-10.59,0-10.59-10.16V129q.55-9.61,9.89-29T350.57,70.7l4.32-5.35A49.6,49.6,0,0,1,359.35,61q5.57-5.22,11.49-5.22t8,3.57a7.41,7.41,0,0,1,.7,3.57q0,2.34-2.09,6.59Q363.11,94,332.19,119.44ZM373.7,67a10.81,10.81,0,0,0,1.67-4.67q0-2.88-2.37-2.88-2,0-4.87,2.2Q357,70.15,346.54,88.55a182.08,182.08,0,0,0-12.26,25.4q9.61-6.45,21.52-21T373.7,67Z"/>
  <path class="cls-1" d="M365.06,138.52a10.72,10.72,0,0,1-4.81-1.3,12.49,12.49,0,0,1-4.39-3.71,8.38,8.38,0,0,1-1.81-5.15,11.37,11.37,0,0,1,1.25-5.22,36,36,0,0,1,9-11.19,80.65,80.65,0,0,1,12.88-9.27,44.93,44.93,0,0,1,10.59-4.8,31.73,31.73,0,0,1,7.59-1,10.77,10.77,0,0,1,6.34,1.85q2.65,1.85,2.65,3.91a1.42,1.42,0,0,1-.14.82c-.09.09-.33,0-.7-.14q-1.67-2.61-6.9-2.61t-11.84,3.36a61.58,61.58,0,0,0-12.47,8.44,53.81,53.81,0,0,0-8.57,10.23q-3.69,5.7-3.69,8.31,0,5.08,2.92,5.08t8.91-4.67a174.62,174.62,0,0,0,13.51-12.08q12.81-13.59,13.79-13.59a11.16,11.16,0,0,1,4,1q2.37,1,1.53,2.33Q397.65,119,396.4,129a29.19,29.19,0,0,0-.14,3.16,4.53,4.53,0,0,0,1.11,3.16q2.09,2.2,5.71.28t10.1-7.69a68.52,68.52,0,0,0,10.38-11.26,1,1,0,0,1,1.25-.34c.46.23.7.44.7.62q0,2.06-6.62,9a81.38,81.38,0,0,1-10.1,9.4q-6.55,4.8-12.12,4.81-5.3,0-7.1-5.22a15,15,0,0,1-.42-3.71,36.26,36.26,0,0,1,2.65-13,53.57,53.57,0,0,0-5.15,5.49,82.18,82.18,0,0,1-10.66,10Q369.93,138.52,365.06,138.52Z"/>
  <path class="cls-1" d="M447.79,59.85q0,2.75-5.85,10-8.5,9.61-9.89,9.61c-.37,0-.56-.27-.56-.82s1.34-2.31,4-5.29a25.15,25.15,0,0,0,5.57-9.4,4.47,4.47,0,0,0,.07-4,5.78,5.78,0,0,1-.77-3.16,3.58,3.58,0,0,1,3.13-1.37,3.63,3.63,0,0,1,3.2,1.51A5.12,5.12,0,0,1,447.79,59.85Z"/>
  <path class="cls-1" d="M433.62,138.38q-1.81,2.06-.77,3.3a3.06,3.06,0,0,0,2.37,1.24,9.55,9.55,0,0,0,2.72-.41,29.55,29.55,0,0,0,11.63-7.07q5.64-5.28,5.64-10.78,0-3-6.83-6.59-3.21-1.65-3.62-1.92Q441,113.67,440,111.2q-2,3.29-6.27,9.47-1,1.1-1.81.48t-.14-1.72q5.71-7.69,7.52-12.91,1-7.55,11.14-13.59t18.53-6q5.29,0,7.45,1.85t2.16,3.64a10.3,10.3,0,0,1-1,4.12,10.81,10.81,0,0,1-4.25,4.39.89.89,0,0,1-1.39-.28q-.28-.82,1.18-2.26A7,7,0,0,0,475,94.45q.42-2.47-2.23-3h-.84q-5.43,0-13.58,4a33.65,33.65,0,0,0-12.74,10.3,7.69,7.69,0,0,0-1.81,4.74q0,2.4,3.34,4.32,1.39.82,4.74,2.61T456.6,120a21.7,21.7,0,0,1,3.34,2.61,5.57,5.57,0,0,1,2.09,3.29q.7,4.12-3.9,9.06-6.55,7.14-19.5,10a25.9,25.9,0,0,1-5.92.69,4.18,4.18,0,0,1-4.11-2.2,2.84,2.84,0,0,1-.42-1.72q0-1.17,2.23-3.78a21.44,21.44,0,0,1,6.69-4,.64.64,0,0,1,.7.14.62.62,0,0,1,.14.69c-.09.27-.58.6-1.46,1A7.61,7.61,0,0,0,433.62,138.38Z"/>
  <path class="cls-1" d="M57.7,114.19s20.05-55.27,93.91-5.87c-6.36-48.42-8.8-60.71-5.87-65.08-17.61,25-54.54,99.22-72.88,112.53C49.11,173,18.08,152.34,23,122.5c0,0-1,36.05,33.75,35.22C81.17,157.13,106.61,94,115.9,74S157,.71,179,16.36c-1,3.42-4.4,9.29-4.4,9.29s-21.52-7-14.67,48.33c4.89,25,13.7,67.59,13.7,67.59S97.81,59.89,57.7,114.19Z"/>
  <path class="cls-2" d="M16.7,108s2.76-13.8-5.51-13.11S16.7,108,16.7,108Z"/>
  <path class="cls-2" d="M26.7,114.22s7.58-.67,11.72-6.19c4.14,0,2.76,5.16,0,6.19S26.7,114.22,26.7,114.22Z"/>
  <path class="cls-2" d="M32.32,90.95s5.55,1.65,7.4,6.17a7.77,7.77,0,0,1-1,7.81s1.85-2.06-2.36-7S35.2,91.15,32.32,90.95Z"/>
  <path class="cls-2" d="M22.45,90.95s-4.33,3.7-4.33,7c0,0-1.76-3.7-1-5.76S21,90.53,22.45,90.95Z"/>
  <path class="cls-2" d="M22.45,113.57S12.39,111,10.72,104.93c-2.26,0,2.47,8.4,4.32,9.75S20.82,115.83,22.45,113.57Z"/>
  <path class="cls-2" d="M23.47,115.53s7,2.77,10.39,1.33-1.75,4.32-6.28,3.29S20.26,114.5,23.47,115.53Z"/>
  <path class="cls-2" d="M19.7,103.7s2.41,4.14,7,4.33,6.17-.84,8.26-3.1-.74,6.9-8.26,7.2S19.7,103.7,19.7,103.7Z"/>
  <path class="cls-2" d="M25.94,97.94s3.3,7,7.92,3.52c0,0-2.5,4.7-7.16,3.47S25.94,97.94,25.94,97.94Z"/>
  <path class="cls-2" d="M22.09,97.94s2.15-4.85,5.57-3a12.22,12.22,0,0,1,4.66,3.87s3.5-4.94-3.18-6.38S22.09,97.94,22.09,97.94Z"/>
</svg>
